<?xml version="1.0" encoding="UTF-8" standalone="no"?>
<svg
   xmlns:dc="http://purl.org/dc/elements/1.1/"
   xmlns:cc="http://creativecommons.org/ns#"
   xmlns:rdf="http://www.w3.org/1999/02/22-rdf-syntax-ns#"
   xmlns:svg="http://www.w3.org/2000/svg"
   xmlns="http://www.w3.org/2000/svg"
   xmlns:sodipodi="http://sodipodi.sourceforge.net/DTD/sodipodi-0.dtd"
   xmlns:inkscape="http://www.inkscape.org/namespaces/inkscape"
   width="155.03168mm"
   height="155.03168mm"
   viewBox="0 0 155.03168 155.03167"
   version="1.1"
   id="svg897"
   inkscape:version="1.0.1 (3bc2e813f5, 2020-09-07)"
   sodipodi:docname="About.svg"
   inkscape:export-filename="F:\React-Native-Apps\Frogs-App\assets\images\about.png"
   inkscape:export-xdpi="100"
   inkscape:export-ydpi="100">
  <defs
     id="defs891">
    <rect
       x="24.946428"
       y="75.595238"
       width="201.08333"
       height="142.11905"
       id="rect1462" />
  </defs>
  <sodipodi:namedview
     id="base"
     pagecolor="#ffffff"
     bordercolor="#666666"
     borderopacity="1.0"
     inkscape:pageopacity="0.0"
     inkscape:pageshadow="2"
     inkscape:zoom="0.35"
     inkscape:cx="211.1455"
     inkscape:cy="340.52499"
     inkscape:document-units="mm"
     inkscape:current-layer="layer1"
     inkscape:document-rotation="0"
     showgrid="false"
     inkscape:window-width="1267"
     inkscape:window-height="1032"
     inkscape:window-x="78"
     inkscape:window-y="0"
     inkscape:window-maximized="0" />
  <metadata
     id="metadata894">
    <rdf:RDF>
      <cc:Work
         rdf:about="">
        <dc:format>image/svg+xml</dc:format>
        <dc:type
           rdf:resource="http://purl.org/dc/dcmitype/StillImage" />
        <dc:title></dc:title>
      </cc:Work>
    </rdf:RDF>
  </metadata>
  <g
     inkscape:label="Layer 1"
     inkscape:groupmode="layer"
     id="layer1"
     transform="translate(-49.967753,-58.06943)">
    <g
       id="g1476"
       transform="translate(0.88316817,-2.5109272)"
       inkscape:export-xdpi="100"
       inkscape:export-ydpi="100">
      <path
         d="m 113.92043,170.73078 v -3.44897 c 0,-2.77267 0.16906,-5.00438 0.5072,-6.69504 0.33812,-1.69066 0.91296,-3.48278 1.72448,-5.37632 0.87914,-1.96115 2.19786,-4.26045 3.95616,-6.89793 1.82591,-2.63743 4.39573,-6.01875 7.70943,-10.14396 3.92235,-5.00438 6.72886,-9.06199 8.41952,-12.17283 1.75829,-3.11081 3.07701,-6.32308 3.95616,-9.63678 0.87915,-3.38134 1.31872,-7.13461 1.31872,-11.25984 0,-5.207251 -0.71008,-9.602984 -2.13024,-13.187196 -1.42016,-3.65184 -3.41515,-6.390717 -5.98496,-8.216639 -2.56981,-1.825918 -5.54538,-2.738877 -8.92672,-2.738877 -5.3425,0 -9.63679,1.589227 -12.88287,4.767677 -3.17845,3.178451 -5.37632,7.946132 -6.5936,14.303035 H 91.197872 V 83.390955 c 7.709437,-3.922347 14.235408,-6.661225 19.577908,-8.216635 5.41014,-1.555415 10.71883,-2.333121 15.92608,-2.333121 8.1152,0 14.81024,1.217279 20.08512,3.651837 5.34251,2.434561 9.19722,5.748265 11.56416,9.94112 2.43455,4.192851 3.65183,9.028157 3.65183,14.505914 0,2.77269 -0.27052,5.34251 -0.81151,7.70944 -0.47339,2.29931 -1.21728,4.5648 -2.23168,6.79648 -1.0144,2.23168 -2.29931,4.53098 -3.85472,6.89792 -1.55542,2.29929 -3.31371,4.63242 -5.27488,6.99937 -1.89355,2.3669 -5.24107,6.35687 -10.04256,11.9699 -3.58421,4.19285 -6.18784,7.57417 -7.81088,10.144 -1.62304,2.50219 -2.77269,4.97056 -3.44896,7.40511 -0.67626,2.36695 -1.0144,5.47779 -1.0144,9.33248 v 2.53601 z"
         style="font-style:normal;font-variant:normal;font-weight:normal;font-stretch:normal;font-size:50.8px;line-height:1.25;font-family:Cambria;-inkscape-font-specification:Cambria;white-space:pre;stroke-width:1"
         id="path1466"
         sodipodi:nodetypes="csscccccscsscccccsccscscccccscc" />
      <ellipse
         style="fill:#000000;fill-opacity:1;stroke:none;stroke-width:0.665001;stroke-linecap:square;stroke-dashoffset:3.37512;paint-order:fill markers stroke;stop-color:#000000"
         id="path1469"
         cx="122.08632"
         cy="191.25595"
         rx="13.985118"
         ry="12.095237" />
    </g>
    <circle
       style="fill:none;fill-opacity:1;stroke:#333333;stroke-width:6.865;stroke-linecap:square;stroke-miterlimit:4;stroke-dasharray:none;stroke-dashoffset:3.37512;stroke-opacity:1;paint-order:fill markers stroke;stop-color:#000000"
       id="path1471"
       cx="127.48359"
       cy="135.58527"
       r="74.083336"
       inkscape:export-xdpi="100"
       inkscape:export-ydpi="100" />
  </g>
</svg>
