<?xml version="1.0" encoding="UTF-8" standalone="no"?>
<svg
   xmlns:dc="http://purl.org/dc/elements/1.1/"
   xmlns:cc="http://creativecommons.org/ns#"
   xmlns:rdf="http://www.w3.org/1999/02/22-rdf-syntax-ns#"
   xmlns:svg="http://www.w3.org/2000/svg"
   xmlns="http://www.w3.org/2000/svg"
   xmlns:sodipodi="http://sodipodi.sourceforge.net/DTD/sodipodi-0.dtd"
   xmlns:inkscape="http://www.inkscape.org/namespaces/inkscape"
   width="117.60235mm"
   height="48.052658mm"
   viewBox="0 0 117.60235 48.052658"
   version="1.1"
   id="svg8"
   inkscape:version="1.0.1 (3bc2e813f5, 2020-09-07)"
   sodipodi:docname="home.svg">
  <defs
     id="defs2">
    <clipPath
       clipPathUnits="userSpaceOnUse"
       id="clipPath863">
      <path
         id="path865"
         style="font-variation-settings:normal;opacity:1;vector-effect:none;fill:#000000;fill-opacity:1;stroke:none;stroke-width:15.8;stroke-linecap:round;stroke-linejoin:miter;stroke-miterlimit:4;stroke-dasharray:none;stroke-dashoffset:0;stroke-opacity:1;stop-color:#000000;stop-opacity:1"
         d="m 57.109175,193.93751 v 36.97087 h 35.867578 c -0.0085,-1.2261 0.0043,-2.45272 0.0067,-3.67884 -0.0937,-1.29863 0.258141,-1.93625 0.812872,-3.20652 -0.02658,-0.16554 -0.04096,-0.25624 -0.08888,-0.54209 -0.02516,-0.85266 0.04836,-1.6998 0.03669,-2.55281 -0.035,-2.62553 -0.311147,-2.74543 0.802537,-3.63183 -0.0312,-0.24121 -0.0583,-0.48299 -0.08733,-0.7245 -0.0369,-0.51322 0.0037,-1.02623 0.04599,-1.53737 0.231259,-2.79679 1.693177,-4.16666 3.123322,-4.21887 1.620835,-0.0592 3.200716,1.57438 2.901636,4.7408 -0.014,0.14793 -0.0146,0.32188 -0.0486,0.46147 -0.13786,1.27374 1.13238,2.86994 -0.490935,4.0659 -0.06927,0.051 -0.140875,0.0972 -0.21394,0.14005 5.3e-4,0.19588 0.0044,0.40329 0.01447,0.62528 0.0082,0.65294 0.02445,1.40835 -0.06976,1.99884 -0.313917,-0.63174 0.266134,0.9021 0.253215,1.495 -0.02455,1.12711 -0.388073,1.90875 -0.955498,2.6572 0.0016,0.0872 0.0035,0.17405 0.01188,0.24133 -0.0024,1.22212 -0.01566,2.44483 -0.0062,3.66696 h 40.412508 v -36.97087 z m 39.490613,21.76095 c -0.395952,0.0846 -0.801891,0.21537 -1.176155,0.42116 -0.0728,0.04 -0.182354,0.37373 -0.297656,0.72864 0.387074,-0.29375 0.855297,-0.6485 1.473811,-1.1498 z m 0.693499,5.1356 c -0.348797,0.0559 -0.691986,0.12538 -1.015442,0.24236 -0.225337,0.0814 0.474994,0.0617 0.712616,0.0925 0.119332,-0.12911 0.193072,-0.21462 0.302826,-0.33487 z" />
    </clipPath>
  </defs>
  <sodipodi:namedview
     id="base"
     pagecolor="#ffffff"
     bordercolor="#666666"
     borderopacity="1.0"
     inkscape:pageopacity="0.0"
     inkscape:pageshadow="2"
     inkscape:zoom="0.57556001"
     inkscape:cx="247.78135"
     inkscape:cy="37.871247"
     inkscape:document-units="mm"
     inkscape:current-layer="layer1"
     inkscape:document-rotation="0"
     showgrid="false"
     inkscape:window-width="1920"
     inkscape:window-height="1009"
     inkscape:window-x="-8"
     inkscape:window-y="-8"
     inkscape:window-maximized="1" />
  <metadata
     id="metadata5">
    <rdf:RDF>
      <cc:Work
         rdf:about="">
        <dc:format>image/svg+xml</dc:format>
        <dc:type
           rdf:resource="http://purl.org/dc/dcmitype/StillImage" />
        <dc:title></dc:title>
      </cc:Work>
    </rdf:RDF>
  </metadata>
  <g
     inkscape:label="Layer 1"
     inkscape:groupmode="layer"
     id="layer1"
     transform="translate(-40.274518,-193.93751)">
    <ellipse
       style="fill:none;fill-opacity:0.866667;stroke:#333333;stroke-width:0.665;stroke-linecap:square;stroke-miterlimit:4;stroke-dasharray:none;stroke-dashoffset:3.37512;paint-order:fill markers stroke;stop-color:#000000"
       id="path833"
       cx="99.075691"
       cy="219.38408"
       rx="58.468674"
       ry="22.273588"
       inkscape:export-xdpi="100"
       inkscape:export-ydpi="100" />
    <ellipse
       style="fill:none;fill-opacity:0.866667;stroke:#333333;stroke-width:0.665001;stroke-linecap:square;stroke-miterlimit:4;stroke-dasharray:none;stroke-dashoffset:3.37512;paint-order:fill markers stroke;stop-color:#000000"
       id="path833-7"
       cx="99.075691"
       cy="215.82787"
       rx="53.641853"
       ry="17.446768"
       inkscape:export-xdpi="100"
       inkscape:export-ydpi="100" />
    <path
       id="path853"
       clip-path="url(#clipPath863)"
       style="color:#000000;font-style:normal;font-variant:normal;font-weight:normal;font-stretch:normal;font-size:medium;line-height:normal;font-family:sans-serif;font-variant-ligatures:normal;font-variant-position:normal;font-variant-caps:normal;font-variant-numeric:normal;font-variant-alternates:normal;font-variant-east-asian:normal;font-feature-settings:normal;font-variation-settings:normal;text-indent:0;text-align:start;text-decoration:none;text-decoration-line:none;text-decoration-style:solid;text-decoration-color:#000000;letter-spacing:normal;word-spacing:normal;text-transform:none;writing-mode:lr-tb;direction:ltr;text-orientation:mixed;dominant-baseline:auto;baseline-shift:baseline;text-anchor:start;white-space:normal;shape-padding:0;shape-margin:0;inline-size:0;clip-rule:nonzero;display:inline;overflow:visible;visibility:visible;opacity:1;isolation:auto;mix-blend-mode:normal;color-interpolation:sRGB;color-interpolation-filters:linearRGB;solid-color:#000000;solid-opacity:1;vector-effect:none;fill:#000000;fill-opacity:1;fill-rule:nonzero;stroke:none;stroke-width:4.465;stroke-linecap:square;stroke-linejoin:miter;stroke-miterlimit:4;stroke-dasharray:none;stroke-dashoffset:3.37512;stroke-opacity:1;paint-order:fill markers stroke;color-rendering:auto;image-rendering:auto;shape-rendering:auto;text-rendering:auto;enable-background:accumulate;stop-color:#000000;stop-opacity:1"
       d="m 98.273438,193.9375 c -11.002496,0 -20.970902,1.8349 -28.388672,4.93164 -3.708885,1.54837 -6.791337,3.40855 -9.050782,5.63867 -2.259444,2.23013 -3.724606,4.94748 -3.724609,7.91407 -10e-7,2.96658 1.465166,5.68589 3.724609,7.91601 2.259444,2.23013 5.341896,4.08835 9.050782,5.63672 7.41777,3.09674 17.386172,4.93359 28.388672,4.93359 11.002502,0 20.970902,-1.83685 28.388672,-4.93359 3.70889,-1.54837 6.79329,-3.40659 9.05273,-5.63672 2.25945,-2.23012 3.72266,-4.94943 3.72266,-7.91601 0,-2.96659 -1.46321,-5.68394 -3.72266,-7.91407 -2.25944,-2.23012 -5.34385,-4.0903 -9.05273,-5.63867 -7.41777,-3.09674 -17.38618,-4.93164 -28.388672,-4.93164 z m 0,4.46484 c 10.498802,0 19.997242,1.80221 26.669922,4.58789 3.33634,1.39284 5.95412,3.03648 7.63476,4.69532 1.68065,1.65883 2.39453,3.21477 2.39454,4.73633 0,1.52155 -0.71389,3.07944 -2.39454,4.73828 -1.68064,1.65883 -4.29842,3.30247 -7.63476,4.69531 -6.67268,2.78568 -16.17112,4.58789 -26.669922,4.58789 -10.498802,0 -19.995292,-1.80221 -26.667969,-4.58789 -3.336339,-1.39284 -5.954123,-3.03648 -7.634766,-4.69531 -1.680643,-1.65884 -2.396485,-3.21673 -2.396484,-4.73828 10e-7,-1.52156 0.71584,-3.0775 2.396484,-4.73633 1.680644,-1.65884 4.298427,-3.30248 7.634766,-4.69532 6.672677,-2.78568 16.169171,-4.58789 26.667969,-4.58789 z"
       transform="translate(0.80228872)"
       inkscape:export-xdpi="100"
       inkscape:export-ydpi="100" />
    <path
       style="color:#000000;font-style:normal;font-variant:normal;font-weight:normal;font-stretch:normal;font-size:medium;line-height:normal;font-family:sans-serif;font-variant-ligatures:normal;font-variant-position:normal;font-variant-caps:normal;font-variant-numeric:normal;font-variant-alternates:normal;font-variant-east-asian:normal;font-feature-settings:normal;font-variation-settings:normal;text-indent:0;text-align:start;text-decoration:none;text-decoration-line:none;text-decoration-style:solid;text-decoration-color:#000000;letter-spacing:normal;word-spacing:normal;text-transform:none;writing-mode:lr-tb;direction:ltr;text-orientation:mixed;dominant-baseline:auto;baseline-shift:baseline;text-anchor:start;white-space:normal;shape-padding:0;shape-margin:0;inline-size:0;clip-rule:nonzero;display:inline;overflow:visible;visibility:visible;opacity:1;isolation:auto;mix-blend-mode:normal;color-interpolation:sRGB;color-interpolation-filters:linearRGB;solid-color:#000000;solid-opacity:1;vector-effect:none;fill:#000000;fill-opacity:1;fill-rule:nonzero;stroke:none;stroke-width:3.165;stroke-linecap:butt;stroke-linejoin:miter;stroke-miterlimit:4;stroke-dasharray:none;stroke-dashoffset:0;stroke-opacity:1;color-rendering:auto;image-rendering:auto;shape-rendering:auto;text-rendering:auto;enable-background:accumulate;stop-color:#000000;stop-opacity:1"
       d="m 90.061076,227.95541 3.527046,2.66853 3.146294,-8.92585 2.901867,8.92585 3.471667,-1.70482 -6.241698,-17.53458 z"
       id="path872"
       sodipodi:nodetypes="ccccccc"
       inkscape:export-xdpi="100"
       inkscape:export-ydpi="100" />
  </g>
</svg>
